<svg width="3858" height="499" viewBox="0 0 3858 499" fill="none" xmlns="http://www.w3.org/2000/svg">
<g filter="url(#filter0_d_22_18)">
<path d="M44.0828 446.948H42.8072C32.9664 446.948 25.3125 442.696 19.8454 434.191C13.7708 424.837 10.7335 411.776 10.7335 395.011C10.7335 381.039 13.0419 365.002 17.6585 346.9C28.5927 303.649 50.4004 260.338 83.0814 216.966C93.8941 202.508 106.59 189.266 121.169 177.238C131.01 169.341 138.846 165.393 144.677 165.393C150.266 165.393 157.495 166.972 166.364 170.131C175.354 173.168 182.036 175.962 186.41 178.514C193.092 182.401 196.433 189.509 196.433 199.835C196.433 207.611 194.306 215.933 190.054 224.802C185.802 233.549 180.396 240.292 173.835 245.03C164.237 251.955 157.13 256.875 152.514 259.791C148.018 262.707 144.799 264.165 142.855 264.165C140.79 264.165 139.635 261.249 139.393 255.417C139.028 251.651 138.117 246.913 136.659 241.203C135.687 237.801 135.14 235.432 135.019 234.096C135.019 233.61 135.444 233.185 136.294 232.82C140.425 231.97 145.528 227.535 151.602 219.517C157.191 211.134 159.985 205.12 159.985 201.475C159.985 197.831 157.92 196.008 153.789 196.008C150.023 196.13 146.743 197.588 143.948 200.382C132.042 211.802 120.258 225.652 108.595 241.932C96.9314 258.09 84.8431 278.683 72.3295 303.71C62.0027 324.85 54.8348 343.681 50.8256 360.203C47.0594 375.876 45.1762 388.329 45.1762 397.562C45.1762 408.253 47.0594 413.781 50.8256 414.145C51.433 414.145 52.1012 413.902 52.8302 413.416C60.3626 408.071 70.0212 398.716 81.8058 385.352C101.852 362.755 119.407 341.008 134.472 320.111C134.958 319.382 135.383 319.018 135.748 319.018C136.841 319.018 142.126 320.476 151.602 323.392C163.265 326.793 169.097 329.77 169.097 332.321C169.097 334.144 167.7 336.391 164.906 339.064L130.463 381.707C95.4735 424.594 66.6802 446.341 44.0828 446.948Z" fill="white"/>
</g>
<g filter="url(#filter1_d_22_18)">
<path d="M521.919 417.377H521.008C517.728 417.377 514.569 416.04 511.532 413.368C508.616 410.695 505.396 407.05 501.873 402.433C498.714 398.789 495.191 394.84 491.303 390.588C488.509 387.308 487.112 380.261 487.112 369.449C487.112 356.692 488.995 340.048 492.761 319.516C502.48 268.368 516.513 210.295 534.858 145.298C539.717 128.168 543.727 118.509 546.885 116.322C548.465 115.229 550.409 114.561 552.717 114.318C555.997 114.075 561.282 112.252 568.572 108.851C571.852 107.393 574.039 106.603 575.132 106.481C575.982 106.481 576.408 107.21 576.408 108.668C576.408 112.92 574.707 122.64 571.305 137.826C567.903 152.891 563.104 171.418 556.908 193.408C550.834 215.277 545.731 235.444 541.601 253.911C537.47 272.256 533.4 290.905 529.391 309.857C525.867 326.38 524.106 339.015 524.106 347.763C524.106 354.445 525.381 358.332 527.933 359.426C531.456 359.183 540.872 348.795 556.179 328.263C590.804 277.359 633.448 211.693 684.109 131.266C706.828 95.1828 719.463 76.4124 722.015 74.9545C723.351 74.1041 725.113 73.4966 727.3 73.1322C732.281 72.0387 738.537 69.8519 746.07 66.5716C748.621 65.1137 750.504 64.3848 751.719 64.3848C752.691 64.3848 753.177 65.1745 753.177 66.7539L750.808 83.1552C749.35 88.7437 741.575 103.201 727.482 126.527C701.726 169.171 668.741 221.473 628.527 283.433C590.987 341.02 564.623 378.561 549.437 396.055C537.652 409.784 528.48 416.891 521.919 417.377Z" fill="white"/>
</g>
<g filter="url(#filter2_d_22_18)">
<path d="M211.336 370.222C209.944 370.557 207.819 370.633 204.963 370.449C202.106 370.266 199.071 369.757 195.857 368.923C192.691 368.011 189.86 366.817 187.362 365.342C184.913 363.788 183.359 361.785 182.702 359.331C181.461 353.336 182.08 345.888 184.559 336.988L184.684 336.255L184.452 335.708L182.269 336.234C178.914 337.041 177.145 337.064 176.962 336.305C176.81 335.672 177.248 334.428 178.275 332.574C178.755 331.789 179.519 330.232 180.567 327.905C182.504 323.153 183.926 320.434 184.832 319.747L189.069 317.322C190.181 316.653 192.638 310.303 196.44 298.273C196.68 297.88 197.037 296.857 197.51 295.203L197.464 295.013C195.831 295.741 195.121 296.548 195.334 297.434C195.426 297.814 195.25 298.057 194.807 298.164C193.51 298.341 190.048 297.868 184.421 296.744C178.163 295.504 174.835 294.196 174.437 292.818C174.346 292.438 174.523 292.061 174.968 291.686C182.698 285.407 191.843 279.859 202.403 275.043C214.294 269.638 224.829 265.831 234.007 263.624C245.528 260.853 251.724 261.003 252.597 264.074C252.82 265.56 253.1 267 253.435 268.392C254.016 270.529 254.638 272.422 255.303 274.07C255.952 275.655 256.451 277.175 256.802 278.631C257.365 280.973 256.792 282.349 255.083 282.761C252.867 283.293 248.004 282.421 240.492 280.143C240.051 279.982 239.356 280.015 238.407 280.243C237.014 280.578 235.36 281.077 233.443 281.738C230.909 282.616 227.393 283.729 222.897 285.079C219.699 285.982 218.229 286.972 218.488 288.048C218.58 288.427 218.804 288.943 219.161 289.593C219.567 290.165 219.937 291.148 220.272 292.54C220.516 293.553 220.559 294.848 220.403 296.426C220.282 297.593 220.103 298.239 219.865 298.363C219.675 298.409 219.399 298.375 219.037 298.261C218.738 298.132 218.32 298.065 217.783 298.061C217.467 298.137 216.961 299.095 216.265 300.937C215.683 302.416 215.303 303.478 215.123 304.124C215.154 304.251 215.517 304.23 216.214 304.063C217.75 303.492 218.93 303.108 219.753 302.91C221.146 302.575 222.257 302.743 223.088 303.414C223.967 304.006 224.867 304.961 225.787 306.28C227.535 308.538 229.82 310.801 232.642 313.068C233.975 314.154 234.717 315.013 234.87 315.646C235.022 316.279 234.03 316.886 231.893 317.467L230.161 317.783C226.315 318.775 222.508 319.791 218.74 320.831C215.021 321.793 212.127 323.125 210.059 324.828C208.04 326.452 206.386 329.461 205.1 333.856C203.861 338.171 202.674 344.65 201.539 353.294L201.535 353.696C201.89 354.615 202.859 354.885 204.442 354.504C205.581 354.23 206.453 353.819 207.058 353.272C215.122 345.038 220.571 339.576 223.406 336.885C225.428 334.992 226.945 333.924 227.958 333.68C228.908 333.452 229.642 334.28 230.163 336.163C231.365 341.164 232.416 344.695 233.313 346.756L233.728 348.062C233.865 348.632 233.804 349.215 233.546 349.813C232.982 351.087 229.22 355.072 222.26 361.769C217.656 366.291 214.015 369.109 211.336 370.222ZM248.577 372.212C248.07 372.334 247.615 371.975 247.212 371.134C246.746 370.309 245.847 368.382 244.516 365.354C243.604 363.23 243.033 361.693 242.805 360.744C241.632 355.87 242.191 346.361 244.48 332.217C246.691 318.025 248.845 305.822 250.942 295.609C253.102 285.38 255.304 276.58 257.549 269.21C259.778 261.777 261.463 257.923 262.602 257.649C266.5 257.984 269.872 257.809 272.721 257.124C273.48 256.941 274.091 256.694 274.551 256.382C274.878 256.906 275.485 257.062 276.371 256.848C277.321 256.62 277.909 256.981 278.138 257.93C278.366 258.88 278.946 259.343 279.878 259.319C280.494 259.372 281.037 260.38 281.509 262.342C281.783 263.481 282.119 265.711 282.515 269.031C282.975 272.335 283.382 275.418 283.736 278.279C284.074 281.077 284.205 285.8 284.13 292.447C284.055 299.094 284.362 304.544 285.05 308.798C286.385 304.326 289.356 292.596 293.962 273.609C299.605 250.021 302.268 236.457 301.952 232.917C301.894 232.395 302.001 231.867 302.274 231.333C302.611 230.783 303.032 230.447 303.539 230.326C303.792 230.265 304.068 230.299 304.367 230.428C312.037 234.475 316.539 236.908 317.874 237.725C319.46 238.75 320.374 239.769 320.618 240.781C320.846 241.731 320.701 242.938 320.183 244.401C320.259 244.718 314.704 268.252 303.518 315.003C299.088 333.612 296.261 343.433 295.036 344.464C294.653 344.824 293.123 345.56 290.445 346.673C284.989 349.325 281.153 350.917 278.938 351.45C276.912 351.937 275.248 351.701 273.946 350.742C272.644 349.783 271.59 347.626 270.783 344.271C269.275 338.005 268.169 323.104 267.463 299.57L267.178 299.638C261.557 324.427 258.814 337.106 258.951 337.676C258.997 337.866 259.32 337.955 259.92 337.945C260.568 337.856 260.938 338.001 261.029 338.381C261.09 338.634 261.055 339.045 260.924 339.612C260.022 343.378 259.377 346.546 258.991 349.116C258.489 352.317 257.867 354.744 257.126 356.395C256.001 358.675 255.043 360.679 254.254 362.409C251.229 368.762 249.336 372.029 248.577 372.212ZM338.663 342.105C338.41 342.166 338.109 342.172 337.763 342.121C334.678 340.988 330.305 339.931 324.645 338.949C324.313 338.961 324.064 338.62 323.896 337.923C323.226 335.138 323.547 327.562 324.857 315.193C326.167 302.825 327.758 291.762 329.63 282.004C331.564 272.231 333.322 264.644 334.902 259.242C334.967 258.958 335.01 258.58 335.03 258.106C333.4 258.565 328.248 260.809 319.574 264.837L314.201 267.134C313.631 267.271 313.016 267.218 312.355 266.975C311.174 266.523 307.9 264.464 302.533 260.801C299.44 258.799 297.863 257.672 297.802 257.419C297.71 257.039 298.236 256.578 299.377 256.035C300.519 255.493 302.179 254.457 304.356 252.929C310.633 248.406 324.747 241.663 346.697 232.7C357.538 228.218 365.585 225.344 370.839 224.081C374.067 223.304 375.97 223.282 376.548 224.013C376.813 226.226 377.154 229.593 377.571 234.113C378.14 241.208 377.426 245.062 375.431 245.676C374.735 245.843 373.9 245.575 372.928 244.872C372.347 244.409 371.519 244.307 370.443 244.566C369.241 244.855 367.562 245.393 365.407 246.179C364.868 246.442 362.872 247.19 359.418 248.423C356.028 249.64 354.213 250.445 353.973 250.838C353.781 251.152 353.745 251.562 353.867 252.068C353.966 253.317 353.747 254.91 353.209 256.847C346.222 280.692 342.1 305.454 340.845 331.135C340.609 334.606 340.38 337.273 340.158 339.134C339.921 340.932 339.422 341.923 338.663 342.105ZM400.662 324.681C399.27 325.016 397.145 325.092 394.289 324.908C391.432 324.725 388.397 324.216 385.183 323.382C382.018 322.47 379.186 321.276 376.688 319.801C374.239 318.247 372.686 316.244 372.028 313.79C370.787 307.795 371.406 300.347 373.886 291.447L374.011 290.714L373.779 290.167L371.595 290.693C368.24 291.5 366.471 291.523 366.289 290.764C366.136 290.131 366.574 288.887 367.601 287.033C368.082 286.248 368.846 284.691 369.893 282.364C371.83 277.612 373.252 274.893 374.158 274.206L378.396 271.781C379.507 271.112 381.964 264.762 385.766 252.732C386.007 252.339 386.363 251.316 386.836 249.662L386.79 249.472C385.157 250.2 384.447 251.007 384.661 251.893C384.752 252.273 384.576 252.516 384.133 252.623C382.837 252.8 379.375 252.327 373.747 251.203C367.49 249.963 364.162 248.655 363.763 247.277C363.672 246.897 363.849 246.52 364.294 246.145C372.025 239.866 381.17 234.318 391.729 229.502C403.621 224.097 414.155 220.29 423.334 218.083C434.854 215.312 441.05 215.462 441.923 218.533C442.147 220.019 442.426 221.459 442.761 222.851C443.342 224.988 443.965 226.881 444.629 228.529C445.278 230.114 445.778 231.634 446.128 233.09C446.691 235.432 446.118 236.808 444.409 237.22C442.194 237.752 437.33 236.88 429.818 234.602C429.378 234.441 428.683 234.474 427.733 234.702C426.34 235.037 424.686 235.536 422.769 236.197C420.235 237.075 416.72 238.188 412.223 239.538C409.025 240.441 407.556 241.431 407.814 242.507C407.906 242.886 408.13 243.402 408.488 244.052C408.893 244.624 409.263 245.607 409.598 246.999C409.842 248.012 409.886 249.307 409.729 250.885C409.608 252.052 409.429 252.698 409.191 252.822C409.001 252.868 408.725 252.834 408.363 252.72C408.064 252.591 407.646 252.524 407.109 252.52C406.793 252.596 406.287 253.554 405.591 255.396C405.01 256.875 404.629 257.937 404.45 258.583C404.48 258.71 404.844 258.689 405.54 258.522C407.077 257.951 408.257 257.567 409.079 257.369C410.472 257.034 411.584 257.202 412.415 257.873C413.294 258.465 414.193 259.42 415.113 260.739C416.861 262.997 419.147 265.26 421.969 267.527C423.301 268.613 424.044 269.472 424.196 270.105C424.348 270.738 423.356 271.345 421.219 271.926L419.487 272.242C415.641 273.234 411.834 274.25 408.067 275.29C404.347 276.252 401.454 277.584 399.386 279.287C397.366 280.911 395.713 283.92 394.426 288.315C393.187 292.63 392 299.11 390.865 307.753L390.862 308.155C391.217 309.074 392.185 309.344 393.768 308.963C394.907 308.689 395.779 308.278 396.384 307.731C404.448 299.497 409.897 294.035 412.732 291.344C414.754 289.451 416.272 288.383 417.284 288.139C418.234 287.911 418.969 288.739 419.489 290.622C420.692 295.623 421.742 299.154 422.639 301.215L423.054 302.521C423.191 303.091 423.131 303.674 422.873 304.272C422.309 305.546 418.546 309.531 411.586 316.228C406.982 320.75 403.341 323.568 400.662 324.681ZM437.903 326.671C437.397 326.793 436.942 326.434 436.539 325.593C436.072 324.768 435.174 322.841 433.843 319.813C432.93 317.689 432.359 316.152 432.131 315.203C430.959 310.329 431.517 300.82 433.807 286.676C436.018 272.484 438.171 260.282 440.268 250.068C442.428 239.839 444.63 231.039 446.875 223.669C449.105 216.236 450.789 212.382 451.929 212.108C455.826 212.443 459.199 212.268 462.047 211.583C462.807 211.4 463.417 211.153 463.878 210.841C464.205 211.365 464.811 211.521 465.697 211.307C466.647 211.079 467.236 211.44 467.464 212.389C467.693 213.339 468.273 213.802 469.205 213.778C469.82 213.831 470.364 214.839 470.836 216.801C471.11 217.94 471.445 220.17 471.842 223.49C472.302 226.794 472.709 229.877 473.062 232.738C473.4 235.536 473.532 240.259 473.457 246.906C473.382 253.553 473.688 259.004 474.377 263.257C475.711 258.785 478.682 247.055 483.289 228.068C488.931 204.48 491.594 190.916 491.279 187.376C491.22 186.854 491.327 186.326 491.601 185.792C491.937 185.242 492.359 184.906 492.865 184.785C493.118 184.724 493.394 184.758 493.693 184.887C501.363 188.934 505.865 191.367 507.2 192.184C508.786 193.209 509.701 194.228 509.944 195.24C510.173 196.19 510.028 197.397 509.509 198.86C509.585 199.177 504.03 222.711 492.844 269.462C488.414 288.071 485.587 297.892 484.362 298.923C483.98 299.283 482.449 300.019 479.771 301.132C474.315 303.784 470.48 305.376 468.264 305.909C466.239 306.396 464.575 306.16 463.273 305.201C461.971 304.242 460.916 302.085 460.109 298.73C458.602 292.464 457.495 277.563 456.789 254.029L456.504 254.097C450.883 278.886 448.141 291.565 448.278 292.135C448.323 292.325 448.646 292.414 449.246 292.404C449.895 292.315 450.264 292.46 450.356 292.84C450.417 293.093 450.381 293.504 450.25 294.071C449.348 297.837 448.704 301.005 448.318 303.575C447.815 306.776 447.194 309.203 446.453 310.854C445.327 313.134 444.369 315.138 443.58 316.868C440.555 323.221 438.662 326.488 437.903 326.671Z" fill="white"/>
</g>
<line x1="883" y1="-2.18557e-07" x2="883" y2="499" stroke="white" stroke-width="10"/>
<path d="M1076.5 350L986.8 140H1051L1126.6 321.8H1088.8L1166.2 140H1225L1135 350H1076.5ZM1237.29 350V140H1296.69V350H1237.29ZM1338.95 350V140H1387.85L1503.65 279.8H1480.55V140H1538.75V350H1489.85L1374.05 210.2H1397.15V350H1338.95ZM1685.35 354.2C1668.75 354.2 1653.35 351.6 1639.15 346.4C1625.15 341 1612.95 333.4 1602.55 323.6C1592.35 313.8 1584.35 302.3 1578.55 289.1C1572.75 275.7 1569.85 261 1569.85 245C1569.85 229 1572.75 214.4 1578.55 201.2C1584.35 187.8 1592.35 176.2 1602.55 166.4C1612.95 156.6 1625.15 149.1 1639.15 143.9C1653.35 138.5 1668.75 135.8 1685.35 135.8C1704.75 135.8 1722.05 139.2 1737.25 146C1752.65 152.8 1765.45 162.6 1775.65 175.4L1737.85 209.6C1731.05 201.6 1723.55 195.5 1715.35 191.3C1707.35 187.1 1698.35 185 1688.35 185C1679.75 185 1671.85 186.4 1664.65 189.2C1657.45 192 1651.25 196.1 1646.05 201.5C1641.05 206.7 1637.05 213 1634.05 220.4C1631.25 227.8 1629.85 236 1629.85 245C1629.85 254 1631.25 262.2 1634.05 269.6C1637.05 277 1641.05 283.4 1646.05 288.8C1651.25 294 1657.45 298 1664.65 300.8C1671.85 303.6 1679.75 305 1688.35 305C1698.35 305 1707.35 302.9 1715.35 298.7C1723.55 294.5 1731.05 288.4 1737.85 280.4L1775.65 314.6C1765.45 327.2 1752.65 337 1737.25 344C1722.05 350.8 1704.75 354.2 1685.35 354.2ZM1856.74 221.3H1954.24V265.7H1856.74V221.3ZM1860.94 304.1H1970.74V350H1802.14V140H1966.84V185.9H1860.94V304.1ZM2003.7 350V140H2052.6L2168.4 279.8H2145.3V140H2203.5V350H2154.6L2038.8 210.2H2061.9V350H2003.7ZM2290.1 350V187.1H2225.6V140H2413.7V187.1H2349.5V350H2290.1ZM2523.13 350V140H2572.03L2687.83 279.8H2664.73V140H2722.93V350H2674.03L2558.23 210.2H2581.33V350H2523.13ZM2869.83 354.2C2853.23 354.2 2837.83 351.6 2823.63 346.4C2809.43 341 2797.13 333.4 2786.73 323.6C2776.53 313.8 2768.53 302.3 2762.73 289.1C2756.93 275.7 2754.03 261 2754.03 245C2754.03 229 2756.93 214.4 2762.73 201.2C2768.53 187.8 2776.63 176.2 2787.03 166.4C2797.43 156.6 2809.73 149.1 2823.93 143.9C2838.33 138.5 2854.03 135.8 2871.03 135.8C2890.83 135.8 2908.53 139.1 2924.13 145.7C2939.73 152.3 2952.63 161.8 2962.83 174.2L2925.03 208.4C2917.83 200.6 2910.03 194.8 2901.63 191C2893.43 187 2884.23 185 2874.03 185C2865.03 185 2856.83 186.4 2849.43 189.2C2842.03 192 2835.73 196.1 2830.53 201.5C2825.33 206.7 2821.23 213 2818.23 220.4C2815.43 227.6 2814.03 235.8 2814.03 245C2814.03 253.8 2815.43 261.9 2818.23 269.3C2821.23 276.7 2825.33 283.1 2830.53 288.5C2835.73 293.7 2841.93 297.8 2849.13 300.8C2856.53 303.6 2864.63 305 2873.43 305C2882.23 305 2890.83 303.6 2899.23 300.8C2907.63 297.8 2916.13 292.8 2924.73 285.8L2958.03 327.5C2946.03 336.1 2932.13 342.7 2916.33 347.3C2900.53 351.9 2885.03 354.2 2869.83 354.2ZM2905.53 319.7V240.5H2958.03V327.5L2905.53 319.7ZM3092.59 354.2C3061.59 354.2 3037.39 345.7 3019.99 328.7C3002.59 311.7 2993.89 287.6 2993.89 256.4V140H3053.29V254.6C3053.29 272.6 3056.79 285.5 3063.79 293.3C3070.99 301.1 3080.79 305 3093.19 305C3105.59 305 3115.29 301.1 3122.29 293.3C3129.29 285.5 3132.79 272.6 3132.79 254.6V140H3191.29V256.4C3191.29 287.6 3182.59 311.7 3165.19 328.7C3147.79 345.7 3123.59 354.2 3092.59 354.2ZM3281.7 350V261.2L3295.5 296.9L3201.6 140H3264.3L3332.1 253.7H3295.8L3363.9 140H3421.5L3327.9 296.9L3341.1 261.2V350H3281.7ZM3490.33 221.3H3587.83V265.7H3490.33V221.3ZM3494.53 304.1H3604.33V350H3435.73V140H3600.43V185.9H3494.53V304.1ZM3637.29 350V140H3686.19L3801.99 279.8H3778.89V140H3837.09V350H3788.19L3672.39 210.2H3695.49V350H3637.29Z" fill="white"/>
<defs>
<filter id="filter0_d_22_18" x="0.733551" y="155.393" width="225.699" height="321.555" filterUnits="userSpaceOnUse" color-interpolation-filters="sRGB">
<feFlood flood-opacity="0" result="BackgroundImageFix"/>
<feColorMatrix in="SourceAlpha" type="matrix" values="0 0 0 0 0 0 0 0 0 0 0 0 0 0 0 0 0 0 127 0" result="hardAlpha"/>
<feOffset dx="10" dy="10"/>
<feGaussianBlur stdDeviation="10"/>
<feComposite in2="hardAlpha" operator="out"/>
<feColorMatrix type="matrix" values="0 0 0 0 1 0 0 0 0 0 0 0 0 0 0 0 0 0 0.25 0"/>
<feBlend mode="normal" in2="BackgroundImageFix" result="effect1_dropShadow_22_18"/>
<feBlend mode="normal" in="SourceGraphic" in2="effect1_dropShadow_22_18" result="shape"/>
</filter>
<filter id="filter1_d_22_18" x="480.112" y="57.3848" width="296.065" height="382.992" filterUnits="userSpaceOnUse" color-interpolation-filters="sRGB">
<feFlood flood-opacity="0" result="BackgroundImageFix"/>
<feColorMatrix in="SourceAlpha" type="matrix" values="0 0 0 0 0 0 0 0 0 0 0 0 0 0 0 0 0 0 127 0" result="hardAlpha"/>
<feOffset dx="8" dy="8"/>
<feGaussianBlur stdDeviation="7.5"/>
<feComposite in2="hardAlpha" operator="out"/>
<feColorMatrix type="matrix" values="0 0 0 0 1 0 0 0 0 0 0 0 0 0 0 0 0 0 0.25 0"/>
<feBlend mode="normal" in2="BackgroundImageFix" result="effect1_dropShadow_22_18"/>
<feBlend mode="normal" in="SourceGraphic" in2="effect1_dropShadow_22_18" result="shape"/>
</filter>
<filter id="filter2_d_22_18" x="159.787" y="181.473" width="396.102" height="225.059" filterUnits="userSpaceOnUse" color-interpolation-filters="sRGB">
<feFlood flood-opacity="0" result="BackgroundImageFix"/>
<feColorMatrix in="SourceAlpha" type="matrix" values="0 0 0 0 0 0 0 0 0 0 0 0 0 0 0 0 0 0 127 0" result="hardAlpha"/>
<feOffset dx="10" dy="10"/>
<feGaussianBlur stdDeviation="5"/>
<feComposite in2="hardAlpha" operator="out"/>
<feColorMatrix type="matrix" values="0 0 0 0 1 0 0 0 0 0 0 0 0 0 0 0 0 0 0.25 0"/>
<feBlend mode="normal" in2="BackgroundImageFix" result="effect1_dropShadow_22_18"/>
<feBlend mode="normal" in="SourceGraphic" in2="effect1_dropShadow_22_18" result="shape"/>
</filter>
</defs>
</svg>
