<svg width="777" height="457" viewBox="0 0 777 457" fill="none" xmlns="http://www.w3.org/2000/svg">
<g filter="url(#filter0_d_4_12)">
<path d="M44.0828 410.948H42.8072C32.9664 410.948 25.3125 406.696 19.8454 398.191C13.7708 388.837 10.7335 375.776 10.7335 359.011C10.7335 345.039 13.0419 329.002 17.6585 310.9C28.5927 267.649 50.4004 224.338 83.0814 180.966C93.8941 166.508 106.59 153.266 121.169 141.238C131.01 133.341 138.846 129.393 144.677 129.393C150.266 129.393 157.495 130.972 166.364 134.131C175.354 137.168 182.036 139.962 186.41 142.514C193.092 146.401 196.433 153.509 196.433 163.835C196.433 171.611 194.306 179.933 190.054 188.802C185.802 197.549 180.396 204.292 173.835 209.03C164.237 215.955 157.13 220.875 152.514 223.791C148.018 226.707 144.799 228.165 142.855 228.165C140.79 228.165 139.635 225.249 139.393 219.417C139.028 215.651 138.117 210.913 136.659 205.203C135.687 201.801 135.14 199.432 135.019 198.096C135.019 197.61 135.444 197.185 136.294 196.82C140.425 195.97 145.528 191.535 151.602 183.517C157.191 175.134 159.985 169.12 159.985 165.475C159.985 161.831 157.92 160.008 153.789 160.008C150.023 160.13 146.743 161.588 143.948 164.382C132.042 175.802 120.258 189.652 108.595 205.932C96.9314 222.09 84.8431 242.683 72.3295 267.71C62.0027 288.85 54.8348 307.681 50.8256 324.203C47.0594 339.876 45.1762 352.329 45.1762 361.562C45.1762 372.253 47.0594 377.781 50.8256 378.145C51.433 378.145 52.1012 377.902 52.8302 377.416C60.3626 372.071 70.0212 362.716 81.8058 349.352C101.852 326.755 119.407 305.008 134.472 284.111C134.958 283.382 135.383 283.018 135.748 283.018C136.841 283.018 142.126 284.476 151.602 287.392C163.265 290.793 169.097 293.77 169.097 296.321C169.097 298.144 167.7 300.391 164.906 303.064L130.463 345.707C95.4735 388.594 66.6802 410.341 44.0828 410.948Z" fill="white"/>
</g>
<g filter="url(#filter1_d_4_12)">
<path d="M521.919 381.377H521.008C517.728 381.377 514.569 380.04 511.532 377.368C508.616 374.695 505.396 371.05 501.873 366.433C498.714 362.789 495.191 358.84 491.303 354.588C488.509 351.308 487.112 344.261 487.112 333.449C487.112 320.692 488.995 304.048 492.761 283.516C502.48 232.368 516.513 174.295 534.858 109.298C539.717 92.1676 543.727 82.509 546.885 80.3222C548.465 79.2288 550.409 78.5606 552.717 78.3176C555.997 78.0746 561.282 76.2523 568.572 72.8505C571.852 71.3926 574.039 70.6029 575.132 70.4814C575.982 70.4814 576.408 71.2104 576.408 72.6683C576.408 76.9205 574.707 86.6397 571.305 101.826C567.903 116.891 563.104 135.418 556.908 157.408C550.834 179.277 545.731 199.444 541.601 217.911C537.47 236.256 533.4 254.905 529.391 273.857C525.867 290.38 524.106 303.015 524.106 311.763C524.106 318.445 525.381 322.332 527.933 323.426C531.456 323.183 540.872 312.795 556.179 292.263C590.804 241.359 633.448 175.693 684.109 95.2656C706.828 59.1828 719.463 40.4124 722.015 38.9545C723.351 38.1041 725.113 37.4966 727.3 37.1322C732.281 36.0387 738.537 33.8519 746.07 30.5716C748.621 29.1137 750.504 28.3848 751.719 28.3848C752.691 28.3848 753.177 29.1745 753.177 30.7539L750.808 47.1552C749.35 52.7437 741.575 67.2012 727.482 90.5274C701.726 133.171 668.741 185.473 628.527 247.433C590.987 305.02 564.623 342.561 549.437 360.055C537.652 373.784 528.48 380.891 521.919 381.377Z" fill="white"/>
</g>
<g filter="url(#filter2_d_4_12)">
<path d="M211.336 334.222C209.944 334.557 207.819 334.633 204.963 334.449C202.106 334.266 199.071 333.757 195.857 332.923C192.691 332.011 189.86 330.817 187.362 329.342C184.913 327.788 183.359 325.785 182.702 323.331C181.461 317.336 182.08 309.888 184.559 300.988L184.684 300.255L184.452 299.708L182.269 300.234C178.914 301.041 177.145 301.064 176.962 300.305C176.81 299.672 177.248 298.428 178.275 296.574C178.755 295.789 179.519 294.232 180.567 291.905C182.504 287.153 183.926 284.434 184.832 283.747L189.069 281.322C190.181 280.653 192.638 274.303 196.44 262.273C196.68 261.88 197.037 260.857 197.51 259.203L197.464 259.013C195.831 259.741 195.121 260.548 195.334 261.434C195.426 261.814 195.25 262.057 194.807 262.164C193.51 262.341 190.048 261.868 184.421 260.744C178.163 259.504 174.835 258.196 174.437 256.818C174.346 256.438 174.523 256.061 174.968 255.686C182.698 249.407 191.843 243.859 202.403 239.043C214.294 233.638 224.829 229.831 234.007 227.624C245.528 224.853 251.724 225.003 252.597 228.074C252.82 229.56 253.1 231 253.435 232.392C254.016 234.529 254.638 236.422 255.303 238.07C255.952 239.655 256.451 241.175 256.802 242.631C257.365 244.973 256.792 246.349 255.083 246.761C252.867 247.293 248.004 246.421 240.492 244.143C240.051 243.982 239.356 244.015 238.407 244.243C237.014 244.578 235.36 245.077 233.443 245.738C230.909 246.616 227.393 247.729 222.897 249.079C219.699 249.982 218.229 250.972 218.488 252.048C218.58 252.427 218.804 252.943 219.161 253.593C219.567 254.165 219.937 255.148 220.272 256.54C220.516 257.553 220.559 258.848 220.403 260.426C220.282 261.593 220.103 262.239 219.865 262.363C219.675 262.409 219.399 262.375 219.037 262.261C218.738 262.132 218.32 262.065 217.783 262.061C217.467 262.137 216.961 263.095 216.265 264.937C215.683 266.416 215.303 267.478 215.123 268.124C215.154 268.251 215.517 268.23 216.214 268.063C217.75 267.492 218.93 267.108 219.753 266.91C221.146 266.575 222.257 266.743 223.088 267.414C223.967 268.006 224.867 268.961 225.787 270.28C227.535 272.538 229.82 274.801 232.642 277.068C233.975 278.154 234.717 279.013 234.87 279.646C235.022 280.279 234.03 280.886 231.893 281.467L230.161 281.783C226.315 282.775 222.508 283.791 218.74 284.831C215.021 285.793 212.127 287.125 210.059 288.828C208.04 290.452 206.386 293.461 205.1 297.856C203.861 302.171 202.674 308.65 201.539 317.294L201.535 317.696C201.89 318.615 202.859 318.885 204.442 318.504C205.581 318.23 206.453 317.819 207.058 317.272C215.122 309.038 220.571 303.576 223.406 300.885C225.428 298.992 226.945 297.924 227.958 297.68C228.908 297.452 229.642 298.28 230.163 300.163C231.365 305.164 232.416 308.695 233.313 310.756L233.728 312.062C233.865 312.632 233.804 313.215 233.546 313.813C232.982 315.087 229.22 319.072 222.26 325.769C217.656 330.291 214.015 333.109 211.336 334.222ZM248.577 336.212C248.07 336.334 247.615 335.975 247.212 335.134C246.746 334.309 245.847 332.382 244.516 329.354C243.604 327.23 243.033 325.693 242.805 324.744C241.632 319.87 242.191 310.361 244.48 296.217C246.691 282.025 248.845 269.822 250.942 259.609C253.102 249.38 255.304 240.58 257.549 233.21C259.778 225.777 261.463 221.923 262.602 221.649C266.5 221.984 269.872 221.809 272.721 221.124C273.48 220.941 274.091 220.694 274.551 220.382C274.878 220.906 275.485 221.062 276.371 220.848C277.321 220.62 277.909 220.981 278.138 221.93C278.366 222.88 278.946 223.343 279.878 223.319C280.494 223.372 281.037 224.38 281.509 226.342C281.783 227.481 282.119 229.711 282.515 233.031C282.975 236.335 283.382 239.418 283.736 242.279C284.074 245.077 284.205 249.8 284.13 256.447C284.055 263.094 284.362 268.544 285.05 272.798C286.385 268.326 289.356 256.596 293.962 237.609C299.605 214.021 302.268 200.457 301.952 196.917C301.894 196.395 302.001 195.867 302.274 195.333C302.611 194.783 303.032 194.447 303.539 194.326C303.792 194.265 304.068 194.299 304.367 194.428C312.037 198.475 316.539 200.908 317.874 201.725C319.46 202.75 320.374 203.769 320.618 204.781C320.846 205.731 320.701 206.938 320.183 208.401C320.259 208.718 314.704 232.252 303.518 279.003C299.088 297.612 296.261 307.433 295.036 308.464C294.653 308.824 293.123 309.56 290.445 310.673C284.989 313.325 281.153 314.917 278.938 315.45C276.912 315.937 275.248 315.701 273.946 314.742C272.644 313.783 271.59 311.626 270.783 308.271C269.275 302.005 268.169 287.104 267.463 263.57L267.178 263.638C261.557 288.427 258.814 301.106 258.951 301.676C258.997 301.866 259.32 301.955 259.92 301.945C260.568 301.856 260.938 302.001 261.029 302.381C261.09 302.634 261.055 303.045 260.924 303.612C260.022 307.378 259.377 310.546 258.991 313.116C258.489 316.317 257.867 318.744 257.126 320.395C256.001 322.675 255.043 324.679 254.254 326.409C251.229 332.762 249.336 336.029 248.577 336.212ZM338.663 306.105C338.41 306.166 338.109 306.172 337.763 306.121C334.678 304.988 330.305 303.931 324.645 302.949C324.313 302.961 324.064 302.62 323.896 301.923C323.226 299.138 323.547 291.562 324.857 279.193C326.167 266.825 327.758 255.762 329.63 246.004C331.564 236.231 333.322 228.644 334.902 223.242C334.967 222.958 335.01 222.58 335.03 222.106C333.4 222.565 328.248 224.809 319.574 228.837L314.201 231.134C313.631 231.271 313.016 231.218 312.355 230.975C311.174 230.523 307.9 228.464 302.533 224.801C299.44 222.799 297.863 221.672 297.802 221.419C297.71 221.039 298.236 220.578 299.377 220.035C300.519 219.493 302.179 218.457 304.356 216.929C310.633 212.406 324.747 205.663 346.697 196.7C357.538 192.218 365.585 189.344 370.839 188.081C374.067 187.304 375.97 187.282 376.548 188.013C376.813 190.226 377.154 193.593 377.571 198.113C378.14 205.208 377.426 209.062 375.431 209.676C374.735 209.843 373.9 209.575 372.928 208.872C372.347 208.409 371.519 208.307 370.443 208.566C369.241 208.855 367.562 209.393 365.407 210.179C364.868 210.442 362.872 211.19 359.418 212.423C356.028 213.64 354.213 214.445 353.973 214.838C353.781 215.152 353.745 215.562 353.867 216.068C353.966 217.317 353.747 218.91 353.209 220.847C346.222 244.692 342.1 269.454 340.845 295.135C340.609 298.606 340.38 301.273 340.158 303.134C339.921 304.932 339.422 305.923 338.663 306.105ZM400.662 288.681C399.27 289.016 397.145 289.092 394.289 288.908C391.432 288.725 388.397 288.216 385.183 287.382C382.018 286.47 379.186 285.276 376.688 283.801C374.239 282.247 372.686 280.244 372.028 277.79C370.787 271.795 371.406 264.347 373.886 255.447L374.011 254.714L373.779 254.167L371.595 254.693C368.24 255.5 366.471 255.523 366.289 254.764C366.136 254.131 366.574 252.887 367.601 251.033C368.082 250.248 368.846 248.691 369.893 246.364C371.83 241.612 373.252 238.893 374.158 238.206L378.396 235.781C379.507 235.112 381.964 228.762 385.766 216.732C386.007 216.339 386.363 215.316 386.836 213.662L386.79 213.472C385.157 214.2 384.447 215.007 384.661 215.893C384.752 216.273 384.576 216.516 384.133 216.623C382.837 216.8 379.375 216.327 373.747 215.203C367.49 213.963 364.162 212.655 363.763 211.277C363.672 210.897 363.849 210.52 364.294 210.145C372.025 203.866 381.17 198.318 391.729 193.502C403.621 188.097 414.155 184.29 423.334 182.083C434.854 179.312 441.05 179.462 441.923 182.533C442.147 184.019 442.426 185.459 442.761 186.851C443.342 188.988 443.965 190.881 444.629 192.529C445.278 194.114 445.778 195.634 446.128 197.09C446.691 199.432 446.118 200.808 444.409 201.22C442.194 201.752 437.33 200.88 429.818 198.602C429.378 198.441 428.683 198.474 427.733 198.702C426.34 199.037 424.686 199.536 422.769 200.197C420.235 201.075 416.72 202.188 412.223 203.538C409.025 204.441 407.556 205.431 407.814 206.507C407.906 206.886 408.13 207.402 408.488 208.052C408.893 208.624 409.263 209.607 409.598 210.999C409.842 212.012 409.886 213.307 409.729 214.885C409.608 216.052 409.429 216.698 409.191 216.822C409.001 216.868 408.725 216.834 408.363 216.72C408.064 216.591 407.646 216.524 407.109 216.52C406.793 216.596 406.287 217.554 405.591 219.396C405.01 220.875 404.629 221.937 404.45 222.583C404.48 222.71 404.844 222.689 405.54 222.522C407.077 221.951 408.257 221.567 409.079 221.369C410.472 221.034 411.584 221.202 412.415 221.873C413.294 222.465 414.193 223.42 415.113 224.739C416.861 226.997 419.147 229.26 421.969 231.527C423.301 232.613 424.044 233.472 424.196 234.105C424.348 234.738 423.356 235.345 421.219 235.926L419.487 236.242C415.641 237.234 411.834 238.25 408.067 239.29C404.347 240.252 401.454 241.584 399.386 243.287C397.366 244.911 395.713 247.92 394.426 252.315C393.187 256.63 392 263.11 390.865 271.753L390.862 272.155C391.217 273.074 392.185 273.344 393.768 272.963C394.907 272.689 395.779 272.278 396.384 271.731C404.448 263.497 409.897 258.035 412.732 255.344C414.754 253.451 416.272 252.383 417.284 252.139C418.234 251.911 418.969 252.739 419.489 254.622C420.692 259.623 421.742 263.154 422.639 265.215L423.054 266.521C423.191 267.091 423.131 267.674 422.873 268.272C422.309 269.546 418.546 273.531 411.586 280.228C406.982 284.75 403.341 287.568 400.662 288.681ZM437.903 290.671C437.397 290.793 436.942 290.434 436.539 289.593C436.072 288.768 435.174 286.841 433.843 283.813C432.93 281.689 432.359 280.152 432.131 279.203C430.959 274.329 431.517 264.82 433.807 250.676C436.018 236.484 438.171 224.282 440.268 214.068C442.428 203.839 444.63 195.039 446.875 187.669C449.105 180.236 450.789 176.382 451.929 176.108C455.826 176.443 459.199 176.268 462.047 175.583C462.807 175.4 463.417 175.153 463.878 174.841C464.205 175.365 464.811 175.521 465.697 175.307C466.647 175.079 467.236 175.44 467.464 176.389C467.693 177.339 468.273 177.802 469.205 177.778C469.82 177.831 470.364 178.839 470.836 180.801C471.11 181.94 471.445 184.17 471.842 187.49C472.302 190.794 472.709 193.877 473.062 196.738C473.4 199.536 473.532 204.259 473.457 210.906C473.382 217.553 473.688 223.004 474.377 227.257C475.711 222.785 478.682 211.055 483.289 192.068C488.931 168.48 491.594 154.916 491.279 151.376C491.22 150.854 491.327 150.326 491.601 149.792C491.937 149.242 492.359 148.906 492.865 148.785C493.118 148.724 493.394 148.758 493.693 148.887C501.363 152.934 505.865 155.367 507.2 156.184C508.786 157.209 509.701 158.228 509.944 159.24C510.173 160.19 510.028 161.397 509.509 162.86C509.585 163.177 504.03 186.711 492.844 233.462C488.414 252.071 485.587 261.892 484.362 262.923C483.98 263.283 482.449 264.019 479.771 265.132C474.315 267.784 470.48 269.376 468.264 269.909C466.239 270.396 464.575 270.16 463.273 269.201C461.971 268.242 460.916 266.085 460.109 262.73C458.602 256.464 457.495 241.563 456.789 218.029L456.504 218.097C450.883 242.886 448.141 255.565 448.278 256.135C448.323 256.325 448.646 256.414 449.246 256.404C449.895 256.315 450.264 256.46 450.356 256.84C450.417 257.093 450.381 257.504 450.25 258.071C449.348 261.837 448.704 265.005 448.318 267.575C447.815 270.776 447.194 273.203 446.453 274.854C445.327 277.134 444.369 279.138 443.58 280.868C440.555 287.221 438.662 290.488 437.903 290.671Z" fill="white"/>
</g>
<defs>
<filter id="filter0_d_4_12" x="0.733551" y="119.393" width="225.699" height="321.555" filterUnits="userSpaceOnUse" color-interpolation-filters="sRGB">
<feFlood flood-opacity="0" result="BackgroundImageFix"/>
<feColorMatrix in="SourceAlpha" type="matrix" values="0 0 0 0 0 0 0 0 0 0 0 0 0 0 0 0 0 0 127 0" result="hardAlpha"/>
<feOffset dx="10" dy="10"/>
<feGaussianBlur stdDeviation="10"/>
<feComposite in2="hardAlpha" operator="out"/>
<feColorMatrix type="matrix" values="0 0 0 0 1 0 0 0 0 0 0 0 0 0 0 0 0 0 0.25 0"/>
<feBlend mode="normal" in2="BackgroundImageFix" result="effect1_dropShadow_4_12"/>
<feBlend mode="normal" in="SourceGraphic" in2="effect1_dropShadow_4_12" result="shape"/>
</filter>
<filter id="filter1_d_4_12" x="480.112" y="21.3848" width="296.065" height="382.992" filterUnits="userSpaceOnUse" color-interpolation-filters="sRGB">
<feFlood flood-opacity="0" result="BackgroundImageFix"/>
<feColorMatrix in="SourceAlpha" type="matrix" values="0 0 0 0 0 0 0 0 0 0 0 0 0 0 0 0 0 0 127 0" result="hardAlpha"/>
<feOffset dx="8" dy="8"/>
<feGaussianBlur stdDeviation="7.5"/>
<feComposite in2="hardAlpha" operator="out"/>
<feColorMatrix type="matrix" values="0 0 0 0 1 0 0 0 0 0 0 0 0 0 0 0 0 0 0.25 0"/>
<feBlend mode="normal" in2="BackgroundImageFix" result="effect1_dropShadow_4_12"/>
<feBlend mode="normal" in="SourceGraphic" in2="effect1_dropShadow_4_12" result="shape"/>
</filter>
<filter id="filter2_d_4_12" x="159.787" y="145.473" width="396.102" height="225.059" filterUnits="userSpaceOnUse" color-interpolation-filters="sRGB">
<feFlood flood-opacity="0" result="BackgroundImageFix"/>
<feColorMatrix in="SourceAlpha" type="matrix" values="0 0 0 0 0 0 0 0 0 0 0 0 0 0 0 0 0 0 127 0" result="hardAlpha"/>
<feOffset dx="10" dy="10"/>
<feGaussianBlur stdDeviation="5"/>
<feComposite in2="hardAlpha" operator="out"/>
<feColorMatrix type="matrix" values="0 0 0 0 1 0 0 0 0 0 0 0 0 0 0 0 0 0 0.25 0"/>
<feBlend mode="normal" in2="BackgroundImageFix" result="effect1_dropShadow_4_12"/>
<feBlend mode="normal" in="SourceGraphic" in2="effect1_dropShadow_4_12" result="shape"/>
</filter>
</defs>
</svg>
